<svg width="270" height="45" viewBox="0 0 270 45" xmlns="http://www.w3.org/2000/svg"><title>ntnews</title><g fill="none" fill-rule="evenodd"><path d="M156.585.461h-10.772v22.107c-1.096-2.574-2.646-4.996-3.428-6.152L131.927.702l-.16-.241h-10.265V44.611H132.7V20.744c.985 2.046 2.395 4.44 3.425 6l11.648 17.622.16.243H157.123V.461h-.538zM175.534 9.958c-4.93 0-9.089 1.68-12.028 4.865-2.746 2.972-4.258 7.157-4.258 11.78 0 10.94 6.477 18.008 16.499 18.008 6.57 0 11.094-1.971 13.733-3.626l.433-.273-.24-.457-3.577-6.82-.289-.548-.497.36c-2.185 1.576-5.102 2.518-7.804 2.518-2.786 0-6.222-1.373-7.13-5.173h20.373l.093-.431c.114-.527.28-2.365.28-3.121.003-11.017-5.533-17.082-15.588-17.082zm-5.087 13.366c.459-2.603 2.022-5.173 5.194-5.173 2.672 0 4.158 1.557 4.9 5.173h-10.094zM241.62 10.027h-10.718l-.097.424-.783 3.39c-1.69 7.308-2.621 11.338-3.099 14.742-.798-3.887-2.44-8.51-5.685-17.628l-.202-.567-.127-.362H211.432l-.12.383-2.426 7.646c-1.487 4.633-2.447 7.63-3.036 10.413-.484-4.058-1.581-8.565-4.023-18.031l-.105-.41H189.307l.238.725 10.913 33.283.122.375H210.07l.12-.386 2.946-9.401c1.365-4.3 2.17-6.84 2.627-8.963.483 1.986 1.298 4.358 2.657 8.307l3.41 10.07.127.37c0 .003.384.003.384.003H231.21l.122-.377 10.799-33.284.234-.723h-.745zM258.317 22.695c-.78-.192-1.503-.351-2.2-.508-3.238-.72-4.795-1.129-4.795-2.555 0-1.009 1.02-1.52 3.033-1.52 2.619 0 5.458 1.065 7.995 2.997l.458.35.313-.486 4.265-6.598.292-.45-.434-.306c-3.42-2.414-7.445-3.587-12.303-3.587-4.042 0-7.46.958-9.886 2.77-2.429 1.815-3.712 4.347-3.712 7.321 0 7.582 5.121 10.081 12.81 11.503 3.185.581 4.517 1.058 4.517 2.511 0 1.078-.45 2.175-3.78 2.175-3.366 0-6.74-1.186-9.259-3.26l-.47-.385-.323.52-3.997 6.434-.262.421.384.307c2.428 1.945 6.789 4.261 13.767 4.261 9.185 0 14.453-4.095 14.453-11.236-.001-8.057-5.773-9.45-10.866-10.679z" fill="#231F20"></path><path d="M35.263.458H24.49v22.11c-1.097-2.575-2.645-4.998-3.429-6.156L10.606.7l-.162-.242H.18V44.608h11.197V20.742c.985 2.045 2.395 4.441 3.426 6L26.45 44.367l.16.242h9.192V.458h-.54zM74.11.461H38.461v9.537h11.591V44.61h12.95V9.998H74.65V.46h-.54z" fill="#EC1C24"></path><path d="M70.32 20.364l7.84 16.083 14.376-6.636 5.118 3.824 9.91 6.974 11.28-15.243L106.802.458l-5.009 9.223-1.915-1.97-2.224-2.642 1.306-2.36-4.681-.788-4.01 1.997.682 2.097L84.58 4.75 70.32 20.364zM106.372 41.212l1.568.647 1.802-.323-.94 2.671s-1.333.404-1.568.404c-.235 0-.862-3.4-.862-3.4z" fill="#231F20"></path><path d="M89.508 5.683l1.308.261-.737-2.04 4.167-2.828 5.607 1.163-1.674 3.147 3.655 4.056-2.199 11.403-8.355-.131-1.772-15.031z" fill="#EC1C24"></path></g></svg>